<?xml version="1.0" standalone="no"?>
<!DOCTYPE svg PUBLIC "-//W3C//DTD SVG 20010904//EN"
 "http://www.w3.org/TR/2001/REC-SVG-20010904/DTD/svg10.dtd">
<svg version="1.0" xmlns="http://www.w3.org/2000/svg"
 width="297.000000pt" height="306.000000pt" viewBox="0 0 297.000000 306.000000"
 preserveAspectRatio="xMidYMid meet">

<g transform="translate(0.000000,306.000000) scale(0.100000,-0.100000)"
fill="#000000" stroke="none">
<path d="M0 1530 l0 -1530 1485 0 1485 0 0 1530 0 1530 -1485 0 -1485 0 0
-1530z m1460 959 c0 -52 2 -59 20 -59 12 0 20 7 21 18 0 9 1 37 2 62 2 38 5
45 22 45 17 0 20 -8 23 -54 2 -30 -2 -66 -8 -82 -21 -49 -101 -45 -120 6 -14
38 -13 122 3 128 28 10 37 -6 37 -64z m383 -11 c23 -27 22 -34 -9 -65 -22 -22
-24 -29 -15 -56 6 -16 9 -32 6 -35 -10 -11 -37 10 -50 40 -14 31 -15 32 -21
11 -7 -24 -28 -31 -39 -12 -4 6 5 44 20 84 l26 73 32 -10 c18 -6 40 -19 50
-30z m-625 9 c2 -10 -3 -17 -12 -17 -20 0 -20 -4 4 -68 11 -29 18 -57 15 -63
-15 -23 -34 -4 -54 51 -18 50 -25 59 -44 57 -39 -4 -24 25 23 44 51 20 64 19
68 -4z m869 -138 c8 -8 10 -31 6 -63 l-6 -51 32 29 c23 22 34 27 43 18 12 -12
2 -30 -55 -96 -25 -28 -40 -37 -52 -32 -15 5 -16 15 -10 68 l7 61 -28 -32
c-21 -23 -34 -30 -47 -25 -23 8 -22 10 37 78 52 60 56 62 73 45z m-1116 -38
c37 -38 39 -82 4 -116 -52 -53 -145 -16 -145 58 0 79 85 114 141 58z m-237
-262 c33 -17 65 -35 70 -39 18 -18 -16 -40 -60 -40 -55 0 -62 -12 -19 -33 32
-15 44 -35 29 -50 -6 -6 -154 63 -154 73 1 20 25 33 71 39 l54 7 -37 19 c-36
18 -46 34 -31 48 9 10 10 10 77 -24z m1606 -1 c61 -66 -17 -175 -98 -136 -55
26 -66 110 -19 143 33 23 92 19 117 -7z m-1120 -84 c13 -34 13 -754 0 -789 -8
-21 -16 -26 -38 -23 l-27 3 -3 405 c-1 223 0 411 3 417 2 7 16 13 30 13 18 0
28 -7 35 -26z m262 -164 l133 -191 3 177 c2 114 7 182 14 191 6 8 23 13 37 11
l26 -3 0 -264 c0 -240 -2 -265 -18 -275 -12 -8 -22 -8 -34 0 -10 6 -93 118
-185 250 -181 257 -197 294 -132 294 18 0 50 -39 156 -190z m368 171 c6 -13
10 -158 10 -403 0 -414 -1 -423 -51 -416 l-24 3 -3 405 c-1 223 0 411 3 417 7
20 53 15 65 -6z m-370 -436 c63 -91 141 -202 173 -247 65 -92 73 -131 26 -136
-24 -3 -39 15 -160 188 l-134 192 -5 -182 c-4 -160 -7 -184 -22 -194 -13 -8
-23 -8 -35 0 -16 10 -18 36 -21 264 -2 265 0 280 42 280 16 0 49 -40 136 -165z
m-482 -656 c33 -31 41 -66 20 -87 -15 -15 -53 -16 -78 -2 -15 8 -21 6 -30 -10
-11 -21 -35 -27 -45 -10 -5 9 83 139 95 140 3 0 20 -14 38 -31z m1085 -3 c9
-7 17 -26 17 -44 0 -28 4 -31 40 -37 35 -6 39 -9 28 -22 -8 -11 -24 -14 -50
-10 -39 5 -47 0 -27 -20 13 -13 4 -33 -15 -33 -11 0 -96 108 -100 126 -1 10
63 54 78 54 6 0 19 -7 29 -14z m-235 -123 c-2 -10 -13 -19 -26 -21 -36 -5 -28
-34 10 -30 39 4 48 -18 14 -34 -24 -10 -31 -35 -10 -31 5 0 18 3 29 5 35 6 29
-27 -8 -40 -51 -18 -54 -16 -76 43 -35 94 -36 99 -4 112 45 18 75 16 71 -4z
m-567 -22 c32 -33 36 -58 14 -100 -16 -33 -33 -41 -80 -41 -45 0 -75 32 -75
79 1 82 84 119 141 62z m229 -48 l0 -27 28 27 c25 24 62 37 62 21 0 -3 -11
-19 -25 -36 -14 -16 -25 -33 -25 -37 0 -4 16 -22 35 -41 19 -19 35 -38 35 -42
0 -20 -47 -5 -77 24 l-33 32 0 -32 c0 -25 -4 -32 -20 -32 -18 0 -20 7 -20 85
0 78 2 85 20 85 15 0 20 -7 20 -27z"/>
<path d="M1780 2449 c0 -24 23 -21 28 4 2 10 -3 17 -12 17 -10 0 -16 -9 -16
-21z"/>
<path d="M882 2288 c-20 -20 -14 -54 14 -68 48 -26 83 21 45 59 -24 24 -42 26
-59 9z"/>
<path d="M2245 2010 c-23 -25 -11 -53 24 -58 31 -5 53 16 49 47 -4 35 -46 41
-73 11z"/>
<path d="M957 843 c-13 -12 -7 -23 13 -23 11 0 20 7 20 15 0 15 -21 21 -33 8z"/>
<path d="M2035 840 c-7 -12 2 -30 16 -30 12 0 12 27 0 35 -5 3 -12 1 -16 -5z"/>
<path d="M1204 712 c-16 -10 -26 -46 -18 -66 8 -21 60 -21 68 0 19 51 -12 92
-50 66z"/>
</g>
</svg>
